<?xml version="1.0" encoding="UTF-8"?>
<svg version="1.1" xmlns="http://www.w3.org/2000/svg" width="1024" height="682">
<path d="M0 0 C337.92 0 675.84 0 1024 0 C1024 225.06 1024 450.12 1024 682 C686.08 682 348.16 682 0 682 C0 456.94 0 231.88 0 0 Z " fill="#FEFEFE" transform="translate(0,0)"/>
<path d="M0 0 C1.59306669 1.19547163 3.17591568 2.40464249 4.75 3.625 C5.72839844 4.34042969 6.70679688 5.05585938 7.71484375 5.79296875 C23.50416295 17.43601467 38.32158964 31.6579278 51.01953125 46.61328125 C53.16533274 49.10783603 55.39585677 51.51718982 57.625 53.9375 C61.66881367 58.37049273 65.49231408 62.9310931 69.26171875 67.59765625 C75.43505868 75.10839165 81.89977111 82.38106562 88.3125 89.6875 C92.02015217 93.91292903 95.66688631 98.19043976 99.3215332 102.46166992 C103.10101789 106.87596883 106.906005 111.26666764 110.75 115.625 C109.24262464 120.03945642 106.85405247 123.57968171 104.125 127.3125 C103.46491943 128.22636475 103.46491943 128.22636475 102.79150391 129.15869141 C98.94329977 134.44737008 94.91198657 139.57946321 90.75 144.625 C87.09678601 141.06393915 83.71411466 137.34969261 80.4375 133.4375 C79.95531006 132.86507568 79.47312012 132.29265137 78.97631836 131.70288086 C76.2059939 128.40198054 73.48692651 125.06690086 70.8125 121.6875 C67.07913662 116.97489376 63.17496878 112.42388206 59.24682617 107.87402344 C56.14540332 104.27502258 53.10936431 100.6349425 50.125 96.9375 C46.34411823 92.27989202 42.37491238 87.83176542 38.3046875 83.42578125 C36.30005616 81.22804323 34.33445437 79.00979546 32.3828125 76.765625 C15.71311222 57.65903106 -1.75975509 37.91708213 -24.25 25.625 C-24.93578125 25.24730469 -25.6215625 24.86960938 -26.328125 24.48046875 C-31.12269997 21.96048545 -36.04849829 20.12290081 -41.25 18.625 C-42.99023438 18.09712891 -42.99023438 18.09712891 -44.765625 17.55859375 C-50.29803857 16.20124647 -55.83283418 16.29545076 -61.5 16.3125 C-62.55574219 16.29638672 -63.61148438 16.28027344 -64.69921875 16.26367188 C-75.21802864 16.25723441 -84.8857261 18.35211165 -94.25 23.1875 C-94.9207959 23.52974609 -95.5915918 23.87199219 -96.28271484 24.22460938 C-112.2209709 32.69974387 -123.50349782 46.52900795 -129.125 63.75 C-130.4957599 69.02280036 -131.03130543 74.18979681 -131.25 79.625 C-131.28254883 80.31803223 -131.31509766 81.01106445 -131.34863281 81.72509766 C-131.82832886 93.10939919 -130.87716648 102.78720137 -127.25 113.625 C-126.92 114.615 -126.59 115.605 -126.25 116.625 C-126.77207031 117.18445313 -127.29414063 117.74390625 -127.83203125 118.3203125 C-133.04195047 123.99556601 -137.87438867 129.84166883 -142.53051758 135.97705078 C-144.6392241 138.72472426 -146.34042997 140.68528665 -149.25 142.625 C-153.37200934 136.16718537 -156.79487358 129.88610749 -159.25 122.625 C-159.69730469 121.45195312 -160.14460938 120.27890625 -160.60546875 119.0703125 C-167.64166834 98.62845531 -168.14046521 68.54833588 -159.25 48.625 C-158.9499707 47.93760742 -158.64994141 47.25021484 -158.34082031 46.54199219 C-156.20712194 41.76781489 -153.81736618 37.17844191 -151.25 32.625 C-150.70601563 31.64015625 -150.16203125 30.6553125 -149.6015625 29.640625 C-139.49234329 12.5782355 -124.05453571 -0.30364132 -106.18066406 -8.46679688 C-104.20145758 -9.39783483 -102.27851765 -10.40997373 -100.34375 -11.4296875 C-69.24565906 -26.97873297 -27.82571543 -18.90551 0 0 Z " fill="#020202" transform="translate(462.25,191.375)"/>
<path d="M0 0 C3.80968082 3.65208611 7.05240011 7.49633137 10.25 11.6875 C14.24649186 16.85407511 18.40314743 21.77261414 22.828125 26.58203125 C25.10230038 29.11389197 27.24176524 31.72358588 29.375 34.375 C33.05530423 38.92729269 36.92375677 43.23525117 40.91137695 47.51464844 C43.93702202 50.78190101 46.7819184 54.14314297 49.5625 57.625 C53.32061141 62.29742832 57.38924938 66.4890201 61.671875 70.6796875 C64.26219907 73.26131921 66.64471709 75.96309293 69.02734375 78.734375 C75.91826599 86.64870154 82.92074983 94.28146565 91 101 C92.31312324 102.18681079 93.62561078 103.37432528 94.9375 104.5625 C112.79064537 120.01233734 135.11223429 127.68817408 158.59863281 126.22314453 C176.99737001 124.51346114 193.27781646 115.64805488 205.75 102.125 C216.9517915 88.58614408 222.42005397 74.21064945 222.3125 56.6875 C222.30839111 55.31936157 222.30839111 55.31936157 222.30419922 53.92358398 C222.17658209 45.63360487 221.25310466 37.61057657 217.56640625 30.06640625 C217 27 217 27 219.11328125 23.7734375 C220.16077278 22.62311235 221.2286 21.49108568 222.3125 20.375 C223.43431815 19.15409174 224.55276363 17.93007671 225.66796875 16.703125 C226.2304834 16.09017578 226.79299805 15.47722656 227.37255859 14.84570312 C230.6225831 11.15980675 233.40842707 7.13030195 236.2578125 3.1328125 C237.12019531 2.07707031 237.12019531 2.07707031 238 1 C238.66 1 239.32 1 240 1 C241.27725714 3.33000827 242.54682448 5.66370929 243.8125 8 C244.16892578 8.64839844 244.52535156 9.29679687 244.89257812 9.96484375 C257.8293349 33.93938383 258.78226522 61.06264078 252 87 C244.0116247 113.1559178 225.16139313 135.17632139 201.58203125 148.69921875 C175.17102329 162.00461308 144.1692206 163.91973189 115.9375 155.3125 C113.9440578 154.57937456 111.96568407 153.8045936 110 153 C109.37834961 152.74653809 108.75669922 152.49307617 108.11621094 152.23193359 C90.72757251 144.99294054 76.32933326 134.16873889 63 121 C62.27570801 120.2894043 61.55141602 119.57880859 60.80517578 118.84667969 C52.93636286 111.11277927 45.18984254 103.37424277 38 95 C34.07183582 90.57651565 30.11216295 86.18301659 26.07421875 81.859375 C20.60210549 75.99520885 15.35642924 70.06280254 10.3359375 63.80078125 C7.70816654 60.65009265 4.93763815 57.67212112 2.125 54.6875 C-4.03829584 48.12962696 -9.52415279 41.13301149 -15 34 C-15.78375 33.1440625 -16.5675 32.288125 -17.375 31.40625 C-19 29 -19 29 -18.9296875 26.46484375 C-15.25264262 16.71603988 -6.46041404 8.10764438 0 0 Z " fill="#010101" transform="translate(474,349)"/>
<path d="M0 0 C27.99659763 -0.59956416 52.98912202 8.57334178 73.61328125 27.67578125 C87.06977383 40.77650342 97.15079355 55.8375241 102.125 74.12109375 C102.47691406 75.36890625 102.82882812 76.61671875 103.19140625 77.90234375 C109.34346073 101.26204867 106.82237107 126.0321204 97.125 148.12109375 C96.82529297 148.80478027 96.52558594 149.4884668 96.21679688 150.19287109 C92.01396489 159.486162 87.056024 167.53784879 80.54492188 175.39794922 C79.00285558 177.26932196 77.49244314 179.16363831 75.984375 181.0625 C62.04504145 198.54336896 46.86090214 215.41231713 29.125 229.12109375 C27.83529297 230.15943359 27.83529297 230.15943359 26.51953125 231.21875 C20.38916501 236.12109375 20.38916501 236.12109375 18.125 236.12109375 C17.8983667 235.48606934 17.6717334 234.85104492 17.43823242 234.19677734 C16.40019683 231.29514637 15.35640222 228.39561901 14.3125 225.49609375 C13.95607422 224.49707031 13.59964844 223.49804688 13.23242188 222.46875 C11.76403996 218.4003891 10.34988009 214.54003524 8.30078125 210.72265625 C7.125 208.12109375 7.125 208.12109375 7.05859375 205.609375 C8.60778333 201.99459931 11.2676395 199.81909768 14.1875 197.30859375 C15.37372456 196.25670485 16.55862112 195.20331645 17.7421875 194.1484375 C18.3206543 193.63651855 18.89912109 193.12459961 19.49511719 192.59716797 C22.34587007 190.01543461 24.99026732 187.23734317 27.63671875 184.44921875 C29.125 183.12109375 29.125 183.12109375 31.125 183.12109375 C31.35316406 182.56164062 31.58132813 182.0021875 31.81640625 181.42578125 C33.48799766 178.48178444 35.6004671 176.57036584 38.0625 174.24609375 C57.23861991 155.5883333 72.58443657 131.66281946 73.5625 104.30859375 C73.06382547 85.16382815 66.14023646 67.39943299 52.671875 53.609375 C38.53201106 40.48879573 21.90569824 34.53053315 2.625 34.74609375 C1.58730469 34.73449219 0.54960938 34.72289062 -0.51953125 34.7109375 C-12.29371168 34.75492572 -22.4316511 37.82832237 -32.875 43.12109375 C-33.63425781 43.50136719 -34.39351562 43.88164062 -35.17578125 44.2734375 C-47.71404683 50.88776233 -57.78060477 60.33915749 -67.875 70.12109375 C-68.39610352 70.62560059 -68.91720703 71.13010742 -69.45410156 71.64990234 C-73.88029595 75.95618979 -78.07743436 80.24340786 -81.875 85.12109375 C-86.36792336 83.5195493 -88.81023168 79.99167606 -91.75 76.43359375 C-92.25402344 75.83353516 -92.75804687 75.23347656 -93.27734375 74.61523438 C-94.2937442 73.40517195 -95.30775426 72.19309758 -96.31933594 70.97900391 C-98.81095053 68.00329972 -101.3425702 65.06207086 -103.875 62.12109375 C-102.58933304 58.43966502 -101.14053157 55.98298345 -98.4609375 53.16015625 C-97.78160156 52.44085938 -97.10226562 51.7215625 -96.40234375 50.98046875 C-95.69207031 50.243125 -94.98179687 49.50578125 -94.25 48.74609375 C-93.56292969 48.01648438 -92.87585938 47.286875 -92.16796875 46.53515625 C-87.63222381 41.76964561 -82.88255162 37.38306765 -77.875 33.12109375 C-76.9365625 32.28964844 -75.998125 31.45820313 -75.03125 30.6015625 C-53.53437991 12.04470553 -28.52014024 0.89125438 0 0 Z " fill="#010101" transform="translate(623.875,172.87890625)"/>
</svg>
